<?xml version="1.0" encoding="UTF-8"?>
<svg version="1.1" xmlns="http://www.w3.org/2000/svg" width="2000" height="1500">
<path d="M0 0 C660 0 1320 0 2000 0 C2000 495 2000 990 2000 1500 C1340 1500 680 1500 0 1500 C0 1005 0 510 0 0 Z " fill="#EAE2D5" transform="translate(0,0)"/>
<path d="M0 0 C169.62 0 339.24 0 514 0 C514.12375 70.6303125 514.12375 70.6303125 514.25 142.6875 C514.28641602 157.55256592 514.32283203 172.41763184 514.36035156 187.7331543 C514.37841797 205.89221191 514.37841797 205.89221191 514.3817749 214.39460754 C514.38549986 220.32993426 514.40015045 226.26510979 514.42230225 232.20039368 C514.44783605 239.05202126 514.45932693 245.90350421 514.4537798 252.75517969 C514.45137901 256.25714852 514.45507818 259.75879443 514.47686052 263.26070344 C514.49684717 267.02108284 514.4919274 270.78066244 514.48101807 274.5410614 C514.49266872 275.6195828 514.50431938 276.69810419 514.51632309 277.80930805 C514.40159278 292.58995807 508.84372899 304.76761649 499.0625 315.6875 C489.10418993 325.20017141 476.98011413 329.1127386 463.44389153 329.13701439 C462.71202031 329.13966622 461.9801491 329.14231804 461.22609997 329.14505023 C458.77847693 329.15269783 456.33090443 329.15330065 453.88327026 329.15390015 C452.10870395 329.15791774 450.33413855 329.16235645 448.55957425 329.1671797 C443.68641001 329.17911748 438.81325567 329.18478712 433.94007969 329.18936086 C428.68291135 329.19532737 423.42575476 329.20693438 418.16859436 329.21765137 C405.47575677 329.24214822 392.7829153 329.25679692 380.09006137 329.26971143 C376.50441935 329.27342483 372.91877772 329.27739793 369.33313608 329.2814641 C347.0595523 329.30669803 324.78596789 329.32874773 302.51237297 329.34119225 C297.35590487 329.34412185 292.1994368 329.34708353 287.04296875 329.35009766 C285.76138233 329.35084371 284.47979591 329.35158976 283.15937354 329.35235842 C262.39484281 329.36501423 241.63039766 329.39824248 220.86590694 329.43989949 C199.54115797 329.48232947 178.21645283 329.50588836 156.89166176 329.51111281 C144.92104158 329.51452529 132.95055525 329.52626183 120.97997665 329.55921555 C110.78652434 329.58723149 100.59323334 329.59820842 90.39974551 329.58702008 C85.20112335 329.58183785 80.00283895 329.58469243 74.80426598 329.60948563 C70.0394531 329.63202007 65.27521981 329.63120562 60.5103965 329.61228175 C58.79234283 329.60948768 57.07424949 329.61504714 55.35625945 329.63009469 C38.59409038 329.76786249 25.74642108 325.28352393 13.25 313.6875 C-1.24778295 298.23456899 -0.58923831 279.059052 -0.46429092 259.17676158 C-0.44664495 255.64084752 -0.45268102 252.10495303 -0.45556259 248.56900692 C-0.45767704 241.72570086 -0.43932766 234.88260718 -0.41355728 228.03935548 C-0.38460861 220.11276459 -0.3815702 212.18629886 -0.37841797 204.25964355 C-0.35746864 183.36056236 -0.30162369 162.46152793 -0.25 141.5625 C-0.1675 94.846875 -0.085 48.13125 0 0 Z " fill="#ED7D26" transform="translate(742,463)"/>
<path d="M0 0 C0.72336468 -0.00265183 1.44672936 -0.00530365 2.19201419 -0.00803584 C4.61674165 -0.01569739 7.04141821 -0.0162868 9.46615696 -0.01688576 C11.22193564 -0.02090245 12.9777134 -0.02534102 14.73349005 -0.03016531 C19.5594461 -0.04211355 24.38539216 -0.0477752 29.2113601 -0.05234647 C34.41609578 -0.05830918 39.62081957 -0.06991733 44.82554722 -0.08063698 C57.39571226 -0.10514532 69.96588123 -0.11978567 82.53606281 -0.13269705 C86.08736364 -0.13641007 89.63866409 -0.14038321 93.18996453 -0.14444971 C115.25072608 -0.1696869 137.31148826 -0.19173645 159.37226105 -0.20417786 C164.48075392 -0.20710747 169.58924678 -0.21006915 174.6977396 -0.21308327 C175.96740444 -0.21382932 177.23706929 -0.21457537 178.54520882 -0.21534403 C199.10799013 -0.22799472 219.67068492 -0.26121503 240.23342579 -0.3028851 C261.3524905 -0.34533117 282.47151094 -0.36887596 303.59061819 -0.37409842 C315.44506359 -0.37750944 327.29937376 -0.38922841 339.15377712 -0.42220116 C349.25057871 -0.45023946 359.34721734 -0.46118433 369.44405483 -0.4500057 C374.59228751 -0.44482884 379.74017909 -0.44764273 384.88836193 -0.47247124 C389.60952751 -0.4950495 394.33010868 -0.49415755 399.0512851 -0.47526737 C400.75123487 -0.47247935 402.45122501 -0.47799854 404.15111016 -0.4930803 C420.60764334 -0.63005553 435.14650354 2.83659943 447.84202671 14.09404564 C475.28713765 42.37877756 462.63499546 95.22499127 462.63499546 126.13701439 C293.01499546 126.13701439 123.39499546 126.13701439 -51.36500454 126.13701439 C-51.36500454 29.71358846 -51.36500454 29.71358846 -36.04078579 13.61748314 C-26.02831183 4.3358467 -13.48524454 0.02442599 0 0 Z " fill="#ED7D26" transform="translate(795.3650045394897,297.8629856109619)"/>
<path d="M0 0 C18.81 0 37.62 0 57 0 C58.50293043 1.50293043 58.37041145 2.98540551 58.64624023 5.07739258 C58.82075462 6.37818001 58.82075462 6.37818001 58.99879456 7.70524597 C59.18308266 9.12925468 59.18308266 9.12925468 59.37109375 10.58203125 C59.56704384 12.05794487 59.56704384 12.05794487 59.76695251 13.56367493 C60.18291315 16.70849029 60.59226546 19.85410824 61 23 C61.12900696 23.99094666 61.25801392 24.98189331 61.39093018 26.00286865 C62.41952844 33.90922406 63.44047272 41.81658404 64.45043945 49.7253418 C64.83025554 52.69614018 65.2136863 55.66645476 65.59765625 58.63671875 C65.70916519 59.51712326 65.82067413 60.39752777 65.93556213 61.30461121 C66.64207529 66.74398512 67.53136039 72.12476819 68.55686951 77.51329041 C69.22854619 81.28252967 69.62305968 85.06695824 70 88.875 C70.77637067 96.29522152 71.79600918 103.63595435 73 111 C74.91214745 99.30297181 76.62521918 87.60340715 78.07772827 75.84066772 C79.86654603 61.37972609 81.83719169 46.95660207 84.0100708 32.54858398 C85.35290591 23.63570038 86.60952458 14.73049015 87.45581055 5.75463867 C87.90561439 1.09438561 87.90561439 1.09438561 89 0 C108.14 0 127.28 0 147 0 C147 62.37 147 124.74 147 189 C135.45 189 123.9 189 112 189 C111.67 147.09 111.34 105.18 111 62 C108.15591127 79.59308571 108.15591127 79.59308571 105.5546875 97.19921875 C104.30952023 105.73124519 102.89711929 114.23838945 101.5234375 122.75048828 C100.87678001 126.76495243 100.23639183 130.78040051 99.59619141 134.79589844 C96.76651469 152.53635865 93.88018103 170.26768544 91 188 C79.78 188 68.56 188 57 188 C53.54127895 170.70639474 53.54127895 170.70639474 52.34375 163.79296875 C52.20014038 162.97154892 52.05653076 162.15012909 51.90856934 161.30381775 C51.43672358 158.59877668 50.96813109 155.89318624 50.5 153.1875 C50.33580566 152.24219421 50.17161133 151.29688843 50.00244141 150.32293701 C47.63075112 136.65953467 45.31816001 122.98639847 43.03125 109.30859375 C42.91675003 108.62378496 42.80225006 107.93897617 42.6842804 107.2334156 C40.10939083 91.82451857 37.55796049 76.41171197 35 61 C34.67 103.24 34.34 145.48 34 189 C22.78 189 11.56 189 0 189 C0 126.63 0 64.26 0 0 Z " fill="#515151" transform="translate(255,844)"/>
<path d="M0 0 C0.76828125 -0.01160156 1.5365625 -0.02320313 2.328125 -0.03515625 C8.91065275 -0.00157192 13.65674876 1.35128302 18.75 5.75 C21 8.375 21 8.375 24 13.375 C24.33 9.415 24.66 5.455 25 1.375 C38.2 1.375 51.4 1.375 65 1.375 C65.0452502 19.53460029 65.08204915 37.69415202 65.10362434 55.85379314 C65.11391098 64.28674535 65.127921 72.71965988 65.15087891 81.15258789 C65.17089316 88.50779316 65.1837354 95.86297114 65.18817699 103.21820289 C65.19077084 107.10813105 65.19681224 110.99798115 65.21146011 114.88788414 C65.22517141 118.55928365 65.22919569 122.23057393 65.22621536 125.90199661 C65.22701636 127.87117669 65.23770634 129.84034525 65.24884033 131.80949402 C65.2154122 146.45175199 63.87054977 162.39442546 53.2890625 173.55859375 C40.27878908 183.88244552 25.47346138 185.55186521 9.5 185.5625 C8.53191406 185.57474609 7.56382813 185.58699219 6.56640625 185.59960938 C-8.15567211 185.62925114 -20.79540378 181.51139748 -33 173.375 C-32.43200205 169.69855553 -31.46584368 167.09629048 -29.49609375 163.94921875 C-29.00302734 163.15322266 -28.50996094 162.35722656 -28.00195312 161.53710938 C-27.48568359 160.72048828 -26.96941406 159.90386719 -26.4375 159.0625 C-25.91736328 158.22654297 -25.39722656 157.39058594 -24.86132812 156.52929688 C-23.58089645 154.47355795 -22.2936642 152.42242777 -21 150.375 C-16.36187638 151.88272823 -11.87269885 153.61290468 -7.3671875 155.47265625 C-0.35570209 158.14535118 8.066645 158.74675365 15.33203125 156.7265625 C18.88449061 154.91550479 21.53110776 152.19628665 23.35546875 148.65625 C24.75494969 143.70293565 24.27568029 138.46742759 24 133.375 C23.57589844 133.91769531 23.15179687 134.46039062 22.71484375 135.01953125 C22.12832031 135.73496094 21.54179688 136.45039062 20.9375 137.1875 C20.36902344 137.89519531 19.80054688 138.60289062 19.21484375 139.33203125 C13.87880091 144.25398964 8.15222294 144.93404184 1.1875 144.875 C-0.0022644 144.86533203 -0.0022644 144.86533203 -1.21606445 144.85546875 C-9.91131043 144.58493812 -15.80194768 141.96426057 -21.875 135.6875 C-31.60893674 123.45709478 -31.32252142 107.66123566 -31.3359375 92.80078125 C-31.34238282 91.10605259 -31.3491124 89.41132498 -31.35610962 87.71659851 C-31.36802309 84.17733181 -31.37179667 80.63816226 -31.37060547 77.09887695 C-31.37040279 72.60864894 -31.39767871 68.11905741 -31.43214989 63.62897968 C-31.45461097 60.13092809 -31.45843717 56.63302493 -31.45738602 53.13490868 C-31.45971423 51.48183187 -31.4683766 49.82874915 -31.48405075 48.17574501 C-31.6061514 33.96834212 -30.93649322 17.75831788 -20.59375 6.8984375 C-14.32526182 1.1967807 -8.1362588 -0.12286297 0 0 Z " fill="#ED7E27" transform="translate(1251,870.625)"/>
<path d="M0 0 C21.12 0 42.24 0 64 0 C66.06013686 20.95163794 68.10222354 41.90349072 70.03515625 62.8671875 C70.11853619 63.77044014 70.20191612 64.67369278 70.28782272 65.60431671 C71.05289384 73.89336804 71.81595082 82.18260321 72.57543945 90.47216797 C74.35378631 109.87186952 76.18228859 129.25305856 78.39477539 148.60888672 C79.11542688 154.93915727 79.70525782 161.27179108 80.1875 167.625 C80.26935547 168.62015625 80.35121094 169.6153125 80.43554688 170.640625 C80.89441763 176.48640705 81 182.09248695 81 188 C69.45 188 57.9 188 46 188 C44.86562353 184.59687058 44.67034233 181.64383682 44.4375 178.0625 C44.35371094 176.83660156 44.26992187 175.61070312 44.18359375 174.34765625 C43.95367338 168.90294627 44 163.44956238 44 158 C36.08 158 28.16 158 20 158 C20.03885649 163.00921704 20.03885649 163.00921704 20.09008789 168.01831055 C20.1157425 174.77540457 19.524659 181.17943294 19 188 C6.79 188 -5.42 188 -18 188 C-17.59531706 176.66887766 -16.92299256 165.49175086 -15.65087891 154.22631836 C-14.08211891 139.95415615 -12.67572562 125.66844264 -11.30582809 111.37613106 C-10.88711443 107.00789299 -10.46578268 102.63990952 -10.0440979 98.2719574 C-8.92417884 86.66762592 -7.80732525 75.06300001 -6.6923672 63.45819086 C-5.95331154 55.76597306 -5.21280412 48.07389818 -4.46950591 40.38208908 C-4.05034608 36.04332496 -3.63349425 31.70434743 -3.21841025 27.36519158 C-2.90074375 24.05128714 -2.57975127 20.73770636 -2.25927734 17.42407227 C-2.14602615 16.23303894 -2.03277496 15.04200562 -1.91609192 13.81488037 C-1.75645714 12.17402214 -1.75645714 12.17402214 -1.59359741 10.50001526 C-1.45702508 9.07923597 -1.45702508 9.07923597 -1.31769371 7.62975407 C-1.00815238 5.06748248 -0.50615639 2.53078194 0 0 Z " fill="#ED7D27" transform="translate(1128,844)"/>
<path d="M0 0 C6.20830308 3.49402113 11.81057651 9.0103835 14.3125 15.828125 C16.13828881 24.89186228 15.42654347 33.03696433 10.75 41 C7.67366787 44.77650671 4.24653393 48.17868103 0.78417969 51.59692383 C-0.23894323 52.6251937 -1.26099385 53.65453144 -2.28205872 54.68484497 C-5.04145674 57.46266489 -7.81621703 60.22463739 -10.59467793 62.98337388 C-13.50955764 65.88179171 -16.41174264 68.79287534 -19.31585693 71.70207214 C-24.19285394 76.58358133 -29.07991477 81.45483445 -33.97314453 86.32006836 C-39.6193438 91.93421088 -45.24932797 97.56422211 -50.87088895 103.20302755 C-56.29388498 108.64192074 -61.72815927 114.06940943 -67.16762543 119.49182701 C-69.47573201 121.79308539 -71.77986997 124.09821052 -74.08084869 126.40659523 C-76.79353967 129.12698182 -79.51601558 131.8371921 -82.24616051 134.54005814 C-83.24281914 135.52986649 -84.23615496 136.52303446 -85.22577095 137.51988411 C-90.57152135 142.90017478 -95.21315891 147.08502688 -102.25 150 C-102.93225773 150.30500836 -103.61451546 150.61001673 -104.31744766 150.92426777 C-110.22622917 153.5333238 -115.61818087 154.22804401 -121.8104248 152.13423157 C-131.78383114 147.57882937 -138.66555271 140.44168176 -146.28125 132.73046875 C-147.68846469 131.32475962 -149.09664523 129.92001679 -150.5057373 128.51618958 C-153.43995763 125.58627799 -156.36342138 122.64616411 -159.27929688 119.69799805 C-163.00390073 115.9335256 -166.75264326 112.19422476 -170.50952911 108.46200085 C-173.41512801 105.57062655 -176.30841529 102.66717928 -179.19810486 99.75991249 C-180.57559514 98.37660409 -181.95661856 96.99680408 -183.34132385 95.620718 C-185.27715793 93.69293511 -187.1959956 91.74964015 -189.11132812 89.80151367 C-189.95914856 88.9665184 -189.95914856 88.9665184 -190.82409668 88.11465454 C-196.17084966 82.61009383 -199.80924752 75.87608593 -199.875 68.0625 C-199.60020803 60.62416557 -196.48381693 55.48702408 -191.50390625 50.1171875 C-185.94049037 44.98744546 -180.41304485 43.69461006 -172.875 43.5625 C-171.62976563 43.52253906 -170.38453125 43.48257813 -169.1015625 43.44140625 C-159.79018956 44.79183863 -153.60145984 52.24403702 -147.28125 58.67578125 C-146.36033569 59.6009404 -145.43942139 60.52609955 -144.49060059 61.47929382 C-142.06402121 63.91722757 -139.64659499 66.36403791 -137.2310791 68.81292725 C-134.75596062 71.31895156 -132.272132 73.81631122 -129.7890625 76.31445312 C-124.93423695 81.20127633 -120.08904345 86.09754979 -115.25 91 C-109.936413 86.56660746 -105.01018563 81.88225064 -100.14672852 76.96264648 C-99.36851746 76.17976257 -98.5903064 75.39687866 -97.78851318 74.590271 C-96.10912481 72.90043011 -94.43083614 71.20949575 -92.75354195 69.51757622 C-90.09490821 66.83681271 -87.43223229 64.16012742 -84.76829529 61.4846344 C-77.19794051 53.88078356 -69.63163138 46.27295149 -62.07592773 38.65454102 C-57.44513895 33.98541436 -52.80637693 29.32430092 -48.16319084 24.66749763 C-46.40023168 22.89650405 -44.64004958 21.12274134 -42.88275337 19.34612846 C-40.42295935 16.85976133 -37.95392724 14.38292162 -35.48266602 11.90795898 C-34.76501572 11.17795181 -34.04736542 10.44794464 -33.30796814 9.69581604 C-23.92782956 0.35249869 -13.2505233 -6.04694631 0 0 Z " fill="#EBE2D4" transform="translate(1091.25,550)"/>
<path d="M0 0 C12.87 0 25.74 0 39 0 C39.495 20.295 39.495 20.295 40 41 C41.98 38.36 43.96 35.72 46 33 C52.33733936 27.26052285 58.73288981 27.26952628 66.9296875 27.65234375 C75.8640237 28.30274385 82.00831633 31.22337961 88 38 C94.5488045 47.40767346 95.29213569 55.98896001 95.22705078 67.18725586 C95.22734283 68.50501007 95.22763489 69.82276428 95.22793579 71.18045044 C95.22850747 74.77708387 95.21678332 78.37358276 95.20278788 81.97018504 C95.19024951 85.73512631 95.18910757 89.50007098 95.18673706 93.26502991 C95.1805314 100.38697742 95.16413299 107.50886322 95.14403808 114.63078362 C95.12165059 122.74202839 95.11067849 130.85327618 95.10064721 138.96454418 C95.07976591 155.64307123 95.04310115 172.32151332 95 189 C82.46 189 69.92 189 57 189 C56.9906543 185.20927002 56.98130859 181.41854004 56.97167969 177.51293945 C56.93793925 164.99985038 56.88260824 152.48693535 56.81609726 139.9739809 C56.77629338 132.38605203 56.74390781 124.79822708 56.72900391 117.21020508 C56.71599429 110.59621593 56.68904758 103.98245529 56.64538693 97.36859483 C56.6227562 93.86677461 56.60709026 90.36523639 56.60811615 86.86333656 C56.6090004 82.95333302 56.57876796 79.04390593 56.54589844 75.1340332 C56.5509288 73.97381653 56.55595917 72.81359985 56.56114197 71.6182251 C56.51527425 65.39815476 56.51527425 65.39815476 54.09088135 59.78312683 C51.84419446 57.86712731 50.91781368 57.31801145 48 57.375 C47.01 57.35566406 47.01 57.35566406 46 57.3359375 C42.65869763 58.4453543 41.8043166 59.95971874 40 63 C39.38370549 67.03900068 39.43641482 71.05471557 39.45410156 75.1340332 C39.44376389 76.36371323 39.43342621 77.59339325 39.42277527 78.8603363 C39.39836411 82.22383526 39.3915098 85.58650603 39.39249516 88.95003533 C39.38936319 92.46817249 39.36373915 95.98614461 39.34051514 99.50419617 C39.29997312 106.16222933 39.27961873 112.8201646 39.26654124 119.47830218 C39.25066504 127.05998193 39.21224687 134.64149523 39.17194796 142.22307837 C39.08957357 157.81536154 39.03844181 173.40753722 39 189 C26.13 189 13.26 189 0 189 C0 126.63 0 64.26 0 0 Z " fill="#505050" transform="translate(744,843)"/>
<path d="M0 0 C12.87 0 25.74 0 39 0 C39.01458252 3.79072998 39.02916504 7.58145996 39.04418945 11.48706055 C39.09448652 24.00013136 39.16092228 36.51307259 39.23571491 49.0260191 C39.28067428 56.61393024 39.32008857 64.20179444 39.34643555 71.78979492 C39.36941455 78.4037538 39.40281135 85.01756412 39.44870156 91.63140517 C39.47263529 95.13318033 39.491363 98.63480836 39.49761391 102.13666344 C39.50478848 106.04659535 39.53522226 109.95615854 39.56762695 113.8659668 C39.56619186 115.02618347 39.56475677 116.18640015 39.5632782 117.3817749 C39.57581635 118.44883163 39.58835449 119.51588837 39.60127258 120.61528015 C39.60588155 121.53983851 39.61049051 122.46439688 39.61523914 123.41697216 C40.08095439 126.54347377 41.15365972 128.45454288 43 131 C45.71276213 131.83133033 48.22916465 131.52640087 51 131 C53.48619851 129.47620091 53.87100286 128.52938254 54.5565176 125.71614552 C54.99924848 123.00460276 55.13858572 120.47493993 55.15821838 117.72917175 C55.17290161 116.16645035 55.17290161 116.16645035 55.18788147 114.57215881 C55.19363693 113.43999435 55.1993924 112.3078299 55.20532227 111.14135742 C55.21522186 109.94093811 55.22512146 108.7405188 55.23532104 107.50372314 C55.26145623 104.2210785 55.2833399 100.93843876 55.30332303 97.65575194 C55.32523598 94.22175377 55.35259862 90.7877991 55.37937927 87.35383606 C55.42923453 80.85519641 55.47419985 74.35653252 55.51740164 67.8578456 C55.56683538 60.45759993 55.62173069 53.05739791 55.67708123 45.6571945 C55.79079122 30.4381685 55.89693311 15.21910236 56 0 C68.87 0 81.74 0 95 0 C95 53.13 95 106.26 95 161 C82.13 161 69.26 161 56 161 C55.67 156.38 55.34 151.76 55 147 C54.278125 148.216875 53.55625 149.43375 52.8125 150.6875 C49.0914656 156.59307425 45.88085705 160.17577278 39 162 C36.22363312 162.31755945 33.48049799 162.38120942 30.6875 162.375 C29.55973145 162.37258301 29.55973145 162.37258301 28.40917969 162.37011719 C22.54039467 162.24060268 17.98309154 161.2390095 13 158 C12.0925 157.46375 11.185 156.9275 10.25 156.375 C-3.0684655 142.31661975 -0.41431378 119.15464211 -0.30418181 101.43023801 C-0.28521587 97.85487178 -0.2836491 94.27949508 -0.28010559 90.7040863 C-0.27084284 83.95777283 -0.24630874 77.21160809 -0.21605712 70.46535963 C-0.18233154 62.77473181 -0.16598183 55.08409626 -0.15097082 47.39341271 C-0.11975277 31.59550809 -0.06481459 15.79780794 0 0 Z " fill="#525252" transform="translate(417,872)"/>
<path d="M0 0 C7.94168259 3.64556372 13.05516258 9.52918468 16.21484375 17.59765625 C19.31103125 26.41505979 18.98160991 35.80283467 18.95336914 45.02368164 C18.95351517 46.28320648 18.95366119 47.54273132 18.95381165 48.84042358 C18.95409662 52.26748184 18.94824864 55.69450456 18.94123769 59.12155461 C18.93495396 62.71298746 18.9343964 66.30442127 18.93321228 69.89585876 C18.93011369 76.68480776 18.92192028 83.47374051 18.91186279 90.26268238 C18.90065577 97.99671992 18.89517967 105.73075826 18.89016736 113.46480191 C18.87973633 129.36326435 18.8614093 145.26170442 18.83984375 161.16015625 C6.29984375 161.16015625 -6.24015625 161.16015625 -19.16015625 161.16015625 C-19.17473877 157.36942627 -19.18932129 153.57869629 -19.2043457 149.6730957 C-19.25464277 137.16002489 -19.32107853 124.64708366 -19.39587116 112.13413715 C-19.44083053 104.54622601 -19.48024482 96.95836181 -19.5065918 89.37036133 C-19.5295708 82.75640245 -19.5629676 76.14259213 -19.60885781 69.52875108 C-19.63279154 66.02697592 -19.65151925 62.52534789 -19.65777016 59.02349281 C-19.66494473 55.1135609 -19.69537851 51.20399771 -19.7277832 47.29418945 C-19.72634811 46.13397278 -19.72491302 44.9737561 -19.72343445 43.77838135 C-19.7359726 42.71132462 -19.74851074 41.64426788 -19.76142883 40.5448761 C-19.7660378 39.62031774 -19.77064676 38.69575937 -19.77539539 37.74318409 C-20.24130928 34.6153489 -21.32420268 32.71424806 -23.16015625 30.16015625 C-26.00099266 28.73973804 -28.01492903 28.84563353 -31.16015625 29.16015625 C-33.78426291 31.0750449 -34.9429137 32.31570359 -35.75573635 35.47526073 C-36.16129078 38.16768825 -36.29891377 40.70924378 -36.31837463 43.4309845 C-36.33305786 44.9937059 -36.33305786 44.9937059 -36.34803772 46.58799744 C-36.35379318 47.7201619 -36.35954865 48.85232635 -36.36547852 50.01879883 C-36.37537811 51.21921814 -36.38527771 52.41963745 -36.39547729 53.65643311 C-36.42161248 56.93907775 -36.44349615 60.22171749 -36.46347928 63.50440431 C-36.48539223 66.93840248 -36.51275487 70.37235715 -36.53953552 73.80632019 C-36.58939078 80.30495984 -36.6343561 86.80362373 -36.67755789 93.30231065 C-36.72699163 100.70255632 -36.78188694 108.10275834 -36.83723748 115.50296175 C-36.95094747 130.72198775 -37.05708936 145.94105389 -37.16015625 161.16015625 C-50.03015625 161.16015625 -62.90015625 161.16015625 -76.16015625 161.16015625 C-76.16015625 108.03015625 -76.16015625 54.90015625 -76.16015625 0.16015625 C-63.29015625 0.16015625 -50.42015625 0.16015625 -37.16015625 0.16015625 C-36.66515625 7.58515625 -36.66515625 7.58515625 -36.16015625 15.16015625 C-35.27328125 13.59265625 -34.38640625 12.02515625 -33.47265625 10.41015625 C-31.11982551 6.49061704 -29.08752313 3.64059849 -25.16015625 1.16015625 C-24.6290625 0.80824219 -24.09796875 0.45632813 -23.55078125 0.09375 C-16.80794828 -2.53948052 -6.93893812 -1.84409357 0 0 Z " fill="#ED7E28" transform="translate(1513.16015625,871.83984375)"/>
<path d="M0 0 C1.59448975 0.00845947 1.59448975 0.00845947 3.22119141 0.01708984 C15.76303413 0.21152209 26.29576431 2.39205485 35.96484375 10.87109375 C45.54271472 21.03387287 47.51784375 34.55535306 47.3828125 47.91015625 C47.38079834 48.86434448 47.37878418 49.81853271 47.37670898 50.80163574 C47.36633744 54.32614022 47.33841573 57.85057554 47.3125 61.375 C47.27125 69.274375 47.23 77.17375 47.1875 85.3125 C28.7075 85.3125 10.2275 85.3125 -8.8125 85.3125 C-8.709375 92.139375 -8.60625 98.96625 -8.5 106 C-8.47510498 108.14717529 -8.45020996 110.29435059 -8.42456055 112.5065918 C-8.3922624 114.2166562 -8.35888752 115.92670076 -8.32421875 117.63671875 C-8.31797485 118.51799438 -8.31173096 119.39927002 -8.30529785 120.30725098 C-8.19444264 125.0444636 -8.04924714 128.5620431 -4.8125 132.3125 C-0.8879778 133.31146929 2.33646842 133.69887137 6.1875 132.3125 C7.27645891 128.73172407 7.38939808 125.30781977 7.50390625 121.578125 C7.54201416 120.41055664 7.58012207 119.24298828 7.61938477 118.04003906 C7.66248779 116.56245117 7.70559082 115.08486328 7.75 113.5625 C7.894375 108.86 8.03875 104.1575 8.1875 99.3125 C21.0575 99.3125 33.9275 99.3125 47.1875 99.3125 C47.1875 139.0499197 47.1875 139.0499197 34.05078125 152.63671875 C22.13295431 163.35526751 7.78710512 164.14003558 -7.48388672 163.44970703 C-18.44225882 162.80401557 -28.59351162 159.75394489 -36.21875 151.4453125 C-45.09595623 139.5655218 -47.93526711 124.74268318 -47.98950195 110.19677734 C-47.99607315 109.41684418 -48.00264435 108.63691101 -48.00941467 107.83334351 C-48.0290004 105.27170691 -48.04077828 102.71012857 -48.05078125 100.1484375 C-48.05485678 99.26641285 -48.0589323 98.3843882 -48.06313133 97.47563553 C-48.08393122 92.80521129 -48.09825809 88.13481588 -48.10766602 83.46435547 C-48.11870709 78.67333963 -48.15309796 73.88279115 -48.19283772 69.09193993 C-48.21914702 65.37870498 -48.22737054 61.66557898 -48.23094749 57.95225906 C-48.23577791 56.18784053 -48.24728886 54.42342567 -48.26598549 52.65909958 C-48.42045271 37.1146367 -46.56936241 23.63417472 -35.6875 11.6875 C-25.42503494 1.93815819 -13.61391959 -0.07514386 0 0 Z " fill="#ED7E28" transform="translate(1376.8125,870.6875)"/>
<path d="M0 0 C8.40152227 7.05727871 13.65922262 15.29186074 15.5625 26.1875 C15.82353349 30.24212481 15.79622652 34.28214778 15.7578125 38.34375 C15.75579834 39.35791992 15.75378418 40.37208984 15.75170898 41.41699219 C15.74131378 45.17387471 15.71339164 48.93069232 15.6875 52.6875 C15.64625 61.1025 15.605 69.5175 15.5625 78.1875 C-2.9175 78.1875 -21.3975 78.1875 -40.4375 78.1875 C-40.2828125 87.6234375 -40.2828125 87.6234375 -40.125 97.25 C-40.10010498 99.22234619 -40.07520996 101.19469238 -40.04956055 103.22680664 C-40.01724313 104.80878 -39.98386555 106.3907322 -39.94921875 107.97265625 C-39.94297485 108.77892456 -39.93673096 109.58519287 -39.93029785 110.41589355 C-39.80035989 115.57009946 -39.31075626 121.31424374 -35.4375 125.1875 C-33.40741509 125.50268215 -33.40741509 125.50268215 -31.0625 125.5625 C-29.87527344 125.63597656 -29.87527344 125.63597656 -28.6640625 125.7109375 C-26.23629683 125.38979979 -26.23629683 125.38979979 -24.83032227 123.06811523 C-23.19992666 119.69615418 -23.01104507 117.30877421 -22.92578125 113.57421875 C-22.87611206 111.88752075 -22.87611206 111.88752075 -22.82543945 110.16674805 C-22.80054443 108.75047119 -22.77564941 107.33419434 -22.75 105.875 C-22.646875 101.358125 -22.54375 96.84125 -22.4375 92.1875 C-9.8975 92.1875 2.6425 92.1875 15.5625 92.1875 C16.4250019 130.13758353 16.4250019 130.13758353 3.85546875 145.23828125 C-5.72014301 154.65261955 -18.81625176 156.37848959 -31.5625 156.4375 C-33.19832031 156.4684375 -33.19832031 156.4684375 -34.8671875 156.5 C-46.71321762 156.55667957 -57.32946626 153.68540209 -66.2578125 145.5234375 C-75.85026743 134.96691675 -78.57892187 120.43891116 -78.59863281 106.58691406 C-78.60359772 105.74378662 -78.60856262 104.90065918 -78.61367798 104.03198242 C-78.62822627 101.25568816 -78.6350895 98.47945104 -78.640625 95.703125 C-78.64345238 94.75024345 -78.64627975 93.79736191 -78.64919281 92.81560516 C-78.66415628 87.77257512 -78.67340355 82.72957347 -78.67773438 77.68652344 C-78.68321335 72.49732263 -78.70723752 67.30838494 -78.73570633 62.11926651 C-78.75440124 58.1110561 -78.75954196 54.10290821 -78.76107025 50.0946579 C-78.76408206 48.18264071 -78.77206042 46.27062424 -78.78525543 44.35865021 C-78.88015938 29.54952188 -78.07562231 16.73587606 -67.62109375 5.1796875 C-51.00266876 -10.33084249 -18.80014316 -12.98602482 0 0 Z " fill="#515150" transform="translate(931.4375,877.8125)"/>
<path d="M0 0 C8.18131362 3.07419057 12.85888669 8.67717807 16.828125 16.28125 C19.94498633 25.16430478 19.96954259 33.79340978 19.94165039 43.10131836 C19.94179642 44.38005829 19.94194244 45.65879822 19.9420929 46.97628784 C19.94237865 50.46544569 19.93651779 53.95456885 19.92951894 57.44371867 C19.92324847 61.09655628 19.92267868 64.74939478 19.92149353 68.40223694 C19.91839108 75.31166667 19.91019238 82.2210805 19.90014404 89.13050324 C19.88894912 96.99992113 19.88346395 104.86933981 19.87844861 112.73876369 C19.86800882 128.91960323 19.84967689 145.10042087 19.828125 161.28125 C7.288125 161.28125 -5.251875 161.28125 -18.171875 161.28125 C-18.17598389 157.46022705 -18.18009277 153.6392041 -18.18432617 149.70239258 C-18.20150968 137.08950653 -18.24573553 124.4768376 -18.30396557 111.86407948 C-18.33861448 104.21558762 -18.36397094 96.56727597 -18.36743164 88.91870117 C-18.37047171 82.25194507 -18.39096743 75.58550991 -18.43239957 68.91887778 C-18.453728 65.38904894 -18.46633136 61.85967634 -18.45802879 58.32978249 C-18.44908591 54.38856858 -18.47911557 50.44817442 -18.51245117 46.50708008 C-18.49951271 44.75272896 -18.49951271 44.75272896 -18.48631287 42.9629364 C-18.53350928 36.5660722 -18.53350928 36.5660722 -21.51777649 31.04838562 C-24.73947449 28.90333438 -26.37496762 28.62091828 -30.171875 29.28125 C-33.52544194 31.43711446 -34.2007163 34.54291366 -35.171875 38.28125 C-35.48219075 42.24031339 -35.48306065 46.19184403 -35.49072266 50.16162109 C-35.50579109 51.94783875 -35.50579109 51.94783875 -35.52116394 53.7701416 C-35.54669334 57.021757 -35.5635865 60.2732777 -35.57659197 63.5249629 C-35.59226199 66.92828258 -35.61903979 70.33151474 -35.6446228 73.73477173 C-35.69134225 80.17316174 -35.72811932 86.61156835 -35.76129568 93.05004084 C-35.79956548 100.38262185 -35.84896285 107.7151148 -35.89927983 115.04762149 C-36.00249801 130.12543846 -36.09032238 145.20329736 -36.171875 160.28125 C-48.711875 160.28125 -61.251875 160.28125 -74.171875 160.28125 C-74.171875 107.48125 -74.171875 54.68125 -74.171875 0.28125 C-61.631875 0.28125 -49.091875 0.28125 -36.171875 0.28125 C-35.676875 8.20125 -35.676875 8.20125 -35.171875 16.28125 C-34.511875 14.940625 -33.851875 13.6 -33.171875 12.21875 C-25.89866643 -0.97305809 -13.91826109 -3.15389167 0 0 Z " fill="#515050" transform="translate(601.171875,871.71875)"/>
<path d="M0 0 C7.12531495 3.21966871 11.78779403 8.74207892 14.92983627 15.82282639 C17.71753877 23.67757484 18.31755075 30.66072742 18.21972656 38.95410156 C18.22031067 40.27258591 18.22089478 41.59107025 18.22149658 42.94950867 C18.22263287 46.52535542 18.1993025 50.10065308 18.17120075 53.67637348 C18.14600347 57.42791691 18.14383079 61.17947631 18.13909912 64.93109131 C18.12672269 72.01754665 18.09397432 79.10375183 18.05370116 86.19009757 C18.00881621 94.26515651 17.9869546 102.3402281 17.96691942 110.41538095 C17.92523605 127.01016261 17.85195155 143.60460015 17.765625 160.19921875 C5.555625 160.19921875 -6.654375 160.19921875 -19.234375 160.19921875 C-19.24895752 156.50984131 -19.26354004 152.82046387 -19.27856445 149.01928711 C-19.32890158 136.82952873 -19.39534535 124.63990812 -19.47008991 112.45027828 C-19.51501423 105.05972153 -19.55443658 97.66921261 -19.58081055 90.27856445 C-19.60381796 83.83524946 -19.63724645 77.39208625 -19.68307656 70.9488917 C-19.70697203 67.53871428 -19.72572477 64.12868683 -19.73198891 60.71842766 C-19.74161205 56.90702863 -19.7696519 53.09617661 -19.80200195 49.28491211 C-19.80056686 48.1599382 -19.79913177 47.03496429 -19.7976532 45.87590027 C-19.86967991 39.87529393 -20.38199738 35.51414442 -23.234375 30.19921875 C-24.66847868 29.9496787 -26.10697572 29.72529233 -27.546875 29.51171875 C-28.34738281 29.38410156 -29.14789062 29.25648438 -29.97265625 29.125 C-32.24228086 29.0100124 -32.24228086 29.0100124 -33.90234375 30.2421875 C-38.10827639 36.42157828 -37.53924329 43.9422201 -37.55322266 51.10131836 C-37.56829109 52.87312469 -37.56829109 52.87312469 -37.58366394 54.6807251 C-37.6091633 57.90129063 -37.6260746 61.12176077 -37.63909197 64.3423965 C-37.65477952 67.71501409 -37.68155164 71.08754374 -37.7071228 74.46009827 C-37.75381143 80.83824763 -37.79060332 87.21641372 -37.82379568 93.59464604 C-37.86208738 100.8595372 -37.91147895 108.12433983 -37.96177983 115.38915622 C-38.06495212 130.32578416 -38.15279502 145.26245434 -38.234375 160.19921875 C-50.774375 160.19921875 -63.314375 160.19921875 -76.234375 160.19921875 C-76.234375 107.39921875 -76.234375 54.59921875 -76.234375 0.19921875 C-63.694375 0.19921875 -51.154375 0.19921875 -38.234375 0.19921875 C-37.739375 8.61421875 -37.739375 8.61421875 -37.234375 17.19921875 C-36.574375 15.69359375 -35.914375 14.18796875 -35.234375 12.63671875 C-28.11987298 -1.71459765 -14.5741879 -3.60834362 0 0 Z " fill="#505050" transform="translate(1037.234375,871.80078125)"/>
<path d="M0 0 C11.88 0 23.76 0 36 0 C38.95822836 26.16894318 41.45265738 52.36111478 43.78557301 78.59128189 C44.03939888 81.44327497 44.29440285 84.29516229 44.54942131 87.14704895 C44.7258475 89.12780424 44.9000102 91.10876073 45.07411194 93.08972168 C45.57932893 98.7536161 46.10380933 104.3835944 47 110 C47.12528076 108.81712402 47.25056152 107.63424805 47.37963867 106.41552734 C49.68792369 84.63046596 52.00543336 62.84641574 54.36831665 41.06719971 C54.57818912 39.13261661 54.78781145 37.19800636 54.99716187 35.2633667 C55.29284359 32.532257 55.58961887 29.80126825 55.88671875 27.0703125 C56.01149597 25.91628937 56.01149597 25.91628937 56.13879395 24.73895264 C57.0394714 16.48576651 58.02983377 8.24641295 59 0 C71.21 0 83.42 0 96 0 C95.40460081 5.35859272 94.80945778 10.49525154 93.87109375 15.76953125 C93.53223145 17.68378906 93.53223145 17.68378906 93.18652344 19.63671875 C92.93691993 21.02865856 92.68724281 22.42058517 92.4375 23.8125 C92.17072314 25.31246883 91.90412696 26.81246981 91.63769531 28.3125 C90.17304429 36.5393049 88.68172772 44.7611312 87.17578125 52.98046875 C86.53362673 56.48693757 85.89167332 59.99344309 85.25 63.5 C85.0863092 64.39417633 84.92261841 65.28835266 84.75396729 66.20962524 C81.01494303 86.66547386 77.49440782 107.15832624 73.98953247 127.65539551 C73.3985381 131.10163504 72.80240728 134.54695622 72.20556641 137.9921875 C71.35775382 142.88977506 70.53728064 147.79121439 69.72802734 152.6953125 C69.30211133 155.21360148 68.87585206 157.73183244 68.44921875 160.25 C68.26285355 161.41031738 68.07648834 162.57063477 67.88447571 163.76611328 C66.51754641 171.71862354 64.7668903 179.82531918 58 185 C52.28024507 187.58262968 46.62249249 187.25501 40.4765625 187.1953125 C39.37524994 187.1924826 38.27393738 187.18965271 37.13925171 187.18673706 C33.63438892 187.17557478 30.12978508 187.15047711 26.625 187.125 C24.24349328 187.11496511 21.86198255 187.10584015 19.48046875 187.09765625 C13.65346668 187.07735311 7.82702198 187.03819607 2 187 C2 179.08 2 171.16 2 163 C8.93 162.67 15.86 162.34 23 162 C23.07820956 153.94460328 23.07820956 153.94460328 22.23046875 146.22265625 C22.06546875 145.22492188 21.90046875 144.2271875 21.73046875 143.19921875 C21.55128906 142.16410156 21.37210938 141.12898437 21.1875 140.0625 C20.8161951 137.8346706 20.44510306 135.60680571 20.07421875 133.37890625 C19.89036621 132.29109863 19.70651367 131.20329102 19.51708984 130.08251953 C18.81429807 125.89297803 18.15430253 121.69733472 17.5 117.5 C16.3463711 110.16457165 15.17489465 102.8320493 14 95.5 C12.70455696 87.41565619 11.41787805 79.33003863 10.14453125 71.2421875 C9.1069612 64.65975388 8.0542331 58.07978318 7 51.5 C6.33301278 47.33338458 5.66640092 43.16670923 5 39 C4.7829541 37.64382568 4.7829541 37.64382568 4.56152344 36.26025391 C3.69550961 30.8420374 2.83898169 25.42247111 2 20 C1.89413574 19.31776367 1.78827148 18.63552734 1.67919922 17.93261719 C1.38474393 16.01842447 1.09842323 14.10298573 0.8125 12.1875 C0.65394531 11.12917969 0.49539063 10.07085938 0.33203125 8.98046875 C0 6 0 6 0 0 Z " fill="#ED7D27" transform="translate(1649,872)"/>
<path d="M0 0 C1.12148437 -0.020625 2.24296875 -0.04125 3.3984375 -0.0625 C17.62723428 -0.12822193 29.19590211 3.25357519 39.8125 12.9375 C47.00131119 20.49011742 49.67279394 29.69507998 49.59765625 39.859375 C49.59664917 40.50406738 49.59564209 41.14875977 49.59460449 41.81298828 C49.58939402 44.20867709 49.57543281 46.60434043 49.5625 49 C49.541875 54.3625 49.52125 59.725 49.5 65.25 C36.63 65.25 23.76 65.25 10.5 65.25 C10.1875 51.0625 10.1875 51.0625 10.11206055 46.61254883 C10.07894775 45.44747803 10.04583496 44.28240723 10.01171875 43.08203125 C9.98553467 41.89327393 9.95935059 40.7045166 9.93237305 39.47973633 C9.46468107 35.986175 8.59456428 34.05783965 6.5 31.25 C3.65916359 29.82958179 1.64522722 29.93547728 -1.5 30.25 C-3.80275556 32.1170991 -5.17823871 33.60647741 -6.5 36.25 C-6.61416196 39.05565011 -6.66785419 41.83704108 -6.67700195 44.64355469 C-6.68357315 45.51203033 -6.69014435 46.38050598 -6.69691467 47.27529907 C-6.71667029 50.15749188 -6.72831587 53.0396325 -6.73828125 55.921875 C-6.74235678 56.90548256 -6.7464323 57.88909012 -6.75063133 58.90250397 C-6.77150265 64.10947969 -6.78579925 69.31642898 -6.79516602 74.5234375 C-6.80622707 79.90154766 -6.84062055 85.27924368 -6.88033772 90.65720749 C-6.90648759 94.7922238 -6.91485646 98.92714125 -6.91844749 103.06223297 C-6.92331839 105.04455611 -6.93494665 107.02687469 -6.95348549 109.00911713 C-6.97784007 111.78603364 -6.97691853 114.56187651 -6.9699707 117.33886719 C-6.98918579 118.56414627 -6.98918579 118.56414627 -7.00878906 119.81417847 C-6.96121466 125.03922052 -6.08913566 128.18096381 -2.5 132.25 C1 133.08333333 1 133.08333333 4.5 132.25 C6.86497439 130.38291495 8.16030715 128.92938569 9.5 126.25 C9.656251 123.77190743 9.75820819 121.31668307 9.81640625 118.8359375 C9.83505737 118.18923096 9.8537085 117.54252441 9.8729248 116.8762207 C9.94124853 114.45928676 10.00138067 112.04212686 10.0625 109.625 C10.206875 104.22125 10.35125 98.8175 10.5 93.25 C23.37 93.25 36.24 93.25 49.5 93.25 C49.5825 98.9425 49.665 104.635 49.75 110.5 C49.78641602 112.27020508 49.82283203 114.04041016 49.86035156 115.86425781 C50.03074957 130.09558489 47.46786415 140.77523395 37.53515625 151.33984375 C25.68812099 162.84410765 11.43692407 163.74280044 -4.23828125 163.53125 C-16.50556802 163.09289778 -27.47267423 158.26713287 -35.90625 149.296875 C-45.92876512 136.42482126 -47.12966709 118.0099818 -47.03125 102.32421875 C-47.03395892 100.75974794 -47.03785277 99.19527879 -47.04284668 97.6308136 C-47.04868153 94.3794423 -47.04038045 91.12851601 -47.02148438 87.87719727 C-46.99875216 83.77240783 -47.01218144 79.66865902 -47.03525829 75.56390572 C-47.24986226 30.54428958 -47.24986226 30.54428958 -37.5 16.25 C-36.81550781 15.20005859 -36.81550781 15.20005859 -36.1171875 14.12890625 C-27.36213175 2.49216129 -13.58109037 0.06076551 0 0 Z " fill="#ED7D27" transform="translate(1591.5,870.75)"/>
<path d="M0 0 C1.10666016 -0.01160156 2.21332031 -0.02320313 3.35351562 -0.03515625 C16.68881529 0.01210412 28.1301068 4.19412676 38.078125 13.20703125 C44.30482666 20.46715608 47.09990601 28.95385764 47.03515625 38.32421875 C47.03414917 39.00923462 47.03314209 39.69425049 47.03210449 40.40002441 C47.02688007 42.95420002 47.01291879 45.50835172 47 48.0625 C46.979375 53.775625 46.95875 59.48875 46.9375 65.375 C34.0675 65.375 21.1975 65.375 7.9375 65.375 C7.6875 50.125 7.6875 50.125 7.63964844 45.33105469 C7.59372559 43.45788574 7.59372559 43.45788574 7.546875 41.546875 C7.52592773 40.2690918 7.50498047 38.99130859 7.48339844 37.67480469 C6.85101496 33.85222192 6.05449523 32.61695142 2.9375 30.375 C-0.83532526 30.04405042 -3.46985548 30.17745183 -7.0625 31.375 C-9.26710092 36.13470058 -9.3534659 40.79632136 -9.3371582 45.94726562 C-9.34226913 46.78706467 -9.34738007 47.62686371 -9.35264587 48.49211121 C-9.36649325 51.25523089 -9.36558903 54.01809984 -9.36328125 56.78125 C-9.36717032 58.70886324 -9.37150542 60.63647563 -9.37626648 62.56408691 C-9.38371785 66.59890525 -9.38344487 70.63363607 -9.37817383 74.66845703 C-9.37237496 79.83341395 -9.38932556 84.99801276 -9.4125185 90.16291046 C-9.42726319 94.14180589 -9.42812663 98.12061517 -9.42500877 102.09953308 C-9.42552143 104.00368459 -9.43074866 105.907841 -9.44082069 107.81196594 C-9.45318457 110.47579123 -9.44639424 113.13891988 -9.43481445 115.80273438 C-9.44245819 116.5852507 -9.45010193 117.36776703 -9.45797729 118.17399597 C-9.40299225 123.90905808 -8.25728084 128.18021916 -4.0625 132.375 C0.66640618 132.91136441 0.66640618 132.91136441 4.8125 131 C7.32458743 127.37142927 7.1565346 124.02035015 7.25390625 119.7421875 C7.27255737 119.07582275 7.2912085 118.40945801 7.3104248 117.72290039 C7.37875784 115.23206933 7.43888403 112.74101859 7.5 110.25 C7.644375 104.68125 7.78875 99.1125 7.9375 93.375 C20.8075 93.375 33.6775 93.375 46.9375 93.375 C46.97875 99.15 47.02 104.925 47.0625 110.875 C47.08070801 112.68162109 47.09891602 114.48824219 47.11767578 116.34960938 C47.12352532 117.80598658 47.12861978 119.26236709 47.1328125 120.71875 C47.14304443 121.45512695 47.15327637 122.19150391 47.16381836 122.95019531 C47.16747838 134.00345266 43.46841413 143.37576177 35.97265625 151.4921875 C24.78191246 161.84523646 11.38119234 164.09073838 -3.28125 163.625 C-15.9685201 163.02935352 -27.54237715 160.67157617 -36.5625 151 C-42.13589395 144.08806838 -44.79009385 136.88566761 -47.0625 128.375 C-47.23715286 127.82198212 -47.41180573 127.26896423 -47.5917511 126.69918823 C-48.25279985 123.43544886 -48.20990301 120.20658642 -48.20776367 116.89111328 C-48.21112228 116.1424852 -48.2144809 115.39385712 -48.21794128 114.62254333 C-48.22743927 112.1467828 -48.22939461 109.67109013 -48.23046875 107.1953125 C-48.23368493 105.46336846 -48.23704927 103.73142468 -48.24055481 101.9994812 C-48.24654519 98.362929 -48.24839508 94.72640054 -48.24780273 91.08984375 C-48.24770176 86.46601618 -48.26128715 81.84234441 -48.27857494 77.21855354 C-48.28979058 73.63566412 -48.29171894 70.05281102 -48.29119301 66.46990585 C-48.29236135 64.76774439 -48.29671747 63.06558161 -48.30452538 61.36343765 C-48.38055738 43.05736738 -48.00527097 24.31569553 -34.37890625 10.46484375 C-24.40352003 1.46512768 -13.1160987 -0.1379835 0 0 Z " fill="#515050" transform="translate(683.0625,870.625)"/>
<path d="M0 0 C152.13 0 304.26 0 461 0 C461 6.6 461 13.2 461 20 C308.87 20 156.74 20 0 20 C0 13.4 0 6.8 0 0 Z " fill="#ED7F2A" transform="translate(1288,769)"/>
<path d="M0 0 C152.13 0 304.26 0 461 0 C461 6.6 461 13.2 461 20 C308.87 20 156.74 20 0 20 C0 13.4 0 6.8 0 0 Z " fill="#ED7F2A" transform="translate(251,769)"/>
<path d="M0 0 C152.13 0 304.26 0 461 0 C461 6.6 461 13.2 461 20 C308.87 20 156.74 20 0 20 C0 13.4 0 6.8 0 0 Z " fill="#ED7F2A" transform="translate(1288,730)"/>
<path d="M0 0 C152.13 0 304.26 0 461 0 C461 6.6 461 13.2 461 20 C308.87 20 156.74 20 0 20 C0 13.4 0 6.8 0 0 Z " fill="#ED7F2A" transform="translate(251,730)"/>
<path d="M0 0 C7.92 0 15.84 0 24 0 C25.22074219 3.15433594 26.44148437 6.30867188 27.69921875 9.55859375 C28.92595471 12.72673603 30.15303929 15.89474301 31.38021851 19.06271362 C32.24935452 21.30641431 33.11835349 23.5501681 33.98721313 25.79397583 C38.34726989 37.05145675 42.71030018 48.30735768 47.15625 59.53125 C47.61763115 60.69673119 47.61763115 60.69673119 48.08833313 61.88575745 C49.50058637 65.45057831 50.91741998 69.01349287 52.34057617 72.57397461 C52.83519818 73.81881806 53.32975047 75.06368923 53.82421875 76.30859375 C54.24791748 77.36876709 54.67161621 78.42894043 55.1081543 79.52124023 C56 82 56 82 56 84 C49.4 84 42.8 84 36 84 C35.175 81.73125 34.35 79.4625 33.5 77.125 C33.23896484 76.41230957 32.97792969 75.69961914 32.70898438 74.96533203 C31 70.22222222 31 70.22222222 31 68 C18.13 68 5.26 68 -8 68 C-8.99 71.3 -9.98 74.6 -11 78 C-11.99 79.98 -12.98 81.96 -14 84 C-19.94 84 -25.88 84 -32 84 C-29.80577531 76.27274668 -27.10570031 68.86839433 -24.140625 61.40625 C-23.67315857 60.22011108 -23.20569214 59.03397217 -22.72406006 57.81188965 C-21.48681528 54.67445979 -20.2461535 51.53842867 -19.00366211 48.40307617 C-17.76279986 45.26976835 -16.52598714 42.13486389 -15.2890625 39 C-13.85079285 35.3554211 -12.41224684 31.71095488 -10.9720459 28.06713867 C-7.28026954 18.72456426 -3.62922285 9.36704445 0 0 Z " fill="#525151" transform="translate(757,1115)"/>
<path d="M0 0 C7.9047508 8.14317716 9.08921961 17.56907527 9.04931641 28.45214844 C8.85390097 37.73527811 7.02683395 46.46152432 0.3828125 53.33984375 C-9.14309628 61.15765854 -21.54507363 61.8581299 -33.31640625 60.734375 C-40.35721984 59.26961945 -46.70705318 56.38803463 -51.31640625 50.734375 C-58.26262551 39.46485782 -59.11911659 26.21489383 -56.66796875 13.32421875 C-54.3604412 6.31288504 -50.49965837 0.28134621 -44.109375 -3.609375 C-30.96341617 -9.88001976 -11.48762876 -9.64865285 0 0 Z " fill="#535352" transform="translate(1122.31640625,1140.265625)"/>
<path d="M0 0 C6.00364566 4.83381765 8.90105528 10.1276586 10.75 17.5234375 C10.75 22.8034375 10.75 28.0834375 10.75 33.5234375 C-3.11 33.5234375 -16.97 33.5234375 -31.25 33.5234375 C-29.76471888 42.35407132 -29.76471888 42.35407132 -24.5625 48.8359375 C-19.96069989 50.20404023 -15.55008265 49.69196673 -10.875 49.0859375 C-8.10357353 47.80445835 -8.10357353 47.80445835 -7.4375 45.38671875 C-6.92556334 43.12211004 -6.5783453 40.82185459 -6.25 38.5234375 C-0.64 38.5234375 4.97 38.5234375 10.75 38.5234375 C10.75 46.46720275 10.55281915 50.64175804 5.0546875 56.25390625 C-2.91461526 62.78744393 -11.6806448 64.11670552 -21.77734375 63.875 C-29.63958306 63.07904776 -36.84720749 60.44078168 -42.25 54.5234375 C-49.32692262 42.49074073 -50.69496581 27.98297238 -47.76953125 14.27148438 C-45.29400908 6.77396342 -40.20613923 1.11054218 -33.296875 -2.49609375 C-23.11032291 -6.62730654 -9.28070702 -6.09046398 0 0 Z " fill="#525252" transform="translate(1264.25,1137.4765625)"/>
<path d="M0 0 C4.64812509 3.56870267 7.22865229 7.55258588 8.6484375 13.265625 C8.91505929 17.18171003 8.88109211 21.08426804 8.84375 25.0078125 C8.8409201 26.13132111 8.83809021 27.25482971 8.83517456 28.41238403 C8.82401053 31.98857427 8.79891251 35.5645109 8.7734375 39.140625 C8.76340283 41.57030887 8.75427783 43.99999669 8.74609375 46.4296875 C8.7240835 52.3750972 8.6895793 58.32031815 8.6484375 64.265625 C3.0384375 64.265625 -2.5715625 64.265625 -8.3515625 64.265625 C-8.3812915 62.25227051 -8.3812915 62.25227051 -8.41162109 60.19824219 C-8.48769282 55.21839638 -8.57640808 50.23884217 -8.66894531 45.25927734 C-8.70722852 43.10406247 -8.74208254 40.94878384 -8.7734375 38.79345703 C-8.819102 35.69540624 -8.87709462 32.59779409 -8.9375 29.5 C-8.94905121 28.53632507 -8.96060242 27.57265015 -8.97250366 26.57977295 C-8.99237335 25.67914124 -9.01224304 24.77850952 -9.03271484 23.85058594 C-9.04603851 23.06004822 -9.05936218 22.2695105 -9.0730896 21.45501709 C-9.38999877 18.96343377 -10.00678481 17.38309011 -11.3515625 15.265625 C-15.60064656 12.43290229 -19.36301655 12.49755961 -24.3515625 13.265625 C-28.26142399 15.26435256 -30.6914884 18.23407513 -32.3515625 22.265625 C-32.67325136 24.36126436 -32.67325136 24.36126436 -32.67041016 26.57519531 C-32.69027985 27.41576477 -32.71014954 28.25633423 -32.73062134 29.12237549 C-32.74794815 30.46945587 -32.74794815 30.46945587 -32.765625 31.84375 C-32.78499115 32.7703241 -32.8043573 33.69689819 -32.8243103 34.65155029 C-32.88401017 37.60614871 -32.93045318 40.56078629 -32.9765625 43.515625 C-33.0147511 45.52085017 -33.05380335 47.52605909 -33.09375 49.53125 C-33.1897039 54.44257611 -33.27377053 59.353979 -33.3515625 64.265625 C-38.9615625 64.265625 -44.5715625 64.265625 -50.3515625 64.265625 C-50.3515625 42.485625 -50.3515625 20.705625 -50.3515625 -1.734375 C-45.4015625 -1.734375 -40.4515625 -1.734375 -35.3515625 -1.734375 C-34.6915625 0.905625 -34.0315625 3.545625 -33.3515625 6.265625 C-32.92746094 5.86730469 -32.50335937 5.46898437 -32.06640625 5.05859375 C-23.15639956 -2.98978592 -11.10371364 -6.65285796 0 0 Z " fill="#555554" transform="translate(1194.3515625,1135.734375)"/>
<path d="M0 0 C4.62286063 2.54527151 7.27951424 6.1134031 9.07006836 11.01098633 C10.49373394 16.18110738 10.25507918 21.40379327 10.203125 26.7265625 C10.2002951 27.82646011 10.19746521 28.92635773 10.19454956 30.05958557 C10.1834023 33.55415978 10.15830748 37.04847269 10.1328125 40.54296875 C10.12277566 42.91991816 10.11365104 45.29687161 10.10546875 47.67382812 C10.08348077 53.48447486 10.04898832 59.29492758 10.0078125 65.10546875 C4.3978125 65.10546875 -1.2121875 65.10546875 -6.9921875 65.10546875 C-7.0219165 63.09211426 -7.0219165 63.09211426 -7.05224609 61.03808594 C-7.12831782 56.05824013 -7.21703308 51.07868592 -7.30957031 46.09912109 C-7.34785352 43.94390622 -7.38270754 41.78862759 -7.4140625 39.63330078 C-7.459727 36.53524999 -7.51771962 33.43763784 -7.578125 30.33984375 C-7.58967621 29.37616882 -7.60122742 28.4124939 -7.61312866 27.4196167 C-7.63299835 26.51898499 -7.65286804 25.61835327 -7.67333984 24.69042969 C-7.68666351 23.89989197 -7.69998718 23.10935425 -7.7137146 22.29486084 C-8.03062377 19.80327752 -8.64740981 18.22293386 -9.9921875 16.10546875 C-14.26321001 13.25812041 -17.9860841 13.72961115 -22.9921875 14.10546875 C-25.95195422 14.60058955 -25.95195422 14.60058955 -27.9921875 16.10546875 C-29.30287083 18.54835503 -29.30287083 18.54835503 -29.9921875 21.10546875 C-30.3221875 21.76546875 -30.6521875 22.42546875 -30.9921875 23.10546875 C-31.10923714 24.46299171 -31.16895939 25.82572763 -31.19750977 27.18798828 C-31.21745499 28.0287088 -31.23740021 28.86942932 -31.25794983 29.73562622 C-31.28301857 31.09819046 -31.28301857 31.09819046 -31.30859375 32.48828125 C-31.32937485 33.41768524 -31.35015594 34.34708923 -31.37156677 35.30465698 C-31.43706396 38.27985085 -31.49594802 41.25513452 -31.5546875 44.23046875 C-31.59787256 46.24480103 -31.64148684 48.25912416 -31.68554688 50.2734375 C-31.79274553 55.21735538 -31.89401251 60.16136378 -31.9921875 65.10546875 C-37.6021875 65.10546875 -43.2121875 65.10546875 -48.9921875 65.10546875 C-48.9921875 43.32546875 -48.9921875 21.54546875 -48.9921875 -0.89453125 C-44.0421875 -0.89453125 -39.0921875 -0.89453125 -33.9921875 -0.89453125 C-33.3321875 1.74546875 -32.6721875 4.38546875 -31.9921875 7.10546875 C-31.56808594 6.70714844 -31.14398437 6.30882812 -30.70703125 5.8984375 C-21.68572314 -2.25048037 -11.52580714 -4.39963606 0 0 Z " fill="#555454" transform="translate(1007.9921875,1134.89453125)"/>
<path d="M0 0 C5.61 0 11.22 0 17 0 C17 29.37 17 58.74 17 89 C11.39 89 5.78 89 0 89 C0 59.63 0 30.26 0 0 Z " fill="#525252" transform="translate(822,1110)"/>
<path d="M0 0 C3.35804188 0.08516773 3.90177087 0.23189422 6.5 2.625 C9.31965049 7.50516431 10.37629283 11.1671741 10.3996582 16.82910156 C10.41395622 18.73698456 10.41395622 18.73698456 10.42854309 20.68341064 C10.42828156 22.06498238 10.42734401 23.44655413 10.42578125 24.828125 C10.42967272 26.25673547 10.43400832 27.68534479 10.43876648 29.11395264 C10.4462176 32.10644277 10.44594655 35.09881492 10.44067383 38.09130859 C10.43489591 41.90524054 10.45177441 45.71868421 10.4750185 49.53253555 C10.48983614 52.48387423 10.49061645 55.43509769 10.48750877 58.38646698 C10.48801847 59.79132805 10.49318939 61.19619618 10.50332069 62.60102081 C10.60291556 78.34861178 10.60291556 78.34861178 7.125 84.4375 C3.69735099 86.72259934 1.98484208 86.9125381 -2.00390625 86.83203125 C-3.875 86.4375 -3.875 86.4375 -5.8125 84.0625 C-6.163125 83.19625 -6.51375 82.33 -6.875 81.4375 C-7.205 80.7775 -7.535 80.1175 -7.875 79.4375 C-7.9773473 77.18694555 -8.01344577 74.93329005 -8.02026367 72.68041992 C-8.02530159 71.63864342 -8.02530159 71.63864342 -8.03044128 70.57582092 C-8.03996221 68.27318547 -8.04189515 65.97062268 -8.04296875 63.66796875 C-8.0461812 62.06854726 -8.04954526 60.46912607 -8.05305481 58.8697052 C-8.0590494 55.51298339 -8.06089444 52.15628733 -8.06030273 48.79956055 C-8.06020124 44.50211719 -8.07383843 40.20483954 -8.09107494 35.90743542 C-8.10220588 32.60198715 -8.10422158 29.29657875 -8.10369301 25.99111366 C-8.10487205 24.40711205 -8.1092896 22.82310937 -8.11702538 21.23912621 C-8.12684476 19.02022164 -8.12393937 16.80167423 -8.11791992 14.58276367 C-8.12005745 12.68985847 -8.12005745 12.68985847 -8.12223816 10.75871277 C-7.6709661 4.69666104 -6.45474957 0.72876205 0 0 Z " fill="#EBE0D1" transform="translate(1266.875,899.5625)"/>
<path d="M0 0 C5.28 0 10.56 0 16 0 C16 29.37 16 58.74 16 89 C10.72 89 5.44 89 0 89 C0 59.63 0 30.26 0 0 Z " fill="#505050" transform="translate(857,1110)"/>
<path d="M0 0 C5.61 0 11.22 0 17 0 C17 21.45 17 42.9 17 65 C11.39 65 5.78 65 0 65 C0 43.55 0 22.1 0 0 Z " fill="#525151" transform="translate(925,1134)"/>
<path d="M0 0 C3.65115217 2.67157476 6.15663744 5.51713178 6.94702148 10.10888672 C7.1005199 12.66753415 7.10819345 15.18735902 7.0625 17.75 C7.07796875 18.60980469 7.0934375 19.46960937 7.109375 20.35546875 C7.07374998 26.22469057 6.08296398 31.06226994 2.5625 35.875 C-2.74692899 39.27303455 -8.22272613 39.77747541 -14.4375 38.875 C-19.03183094 36.78666776 -20.94602378 34.62953628 -22.82885742 29.97729492 C-23.98931154 25.96900353 -23.90884168 21.95656778 -23.875 17.8125 C-23.9049707 16.50442383 -23.9049707 16.50442383 -23.93554688 15.16992188 C-23.9313015 9.56178313 -23.1762733 6.31566197 -19.4375 1.875 C-14.20540301 -2.88145181 -6.32401403 -2.06967732 0 0 Z " fill="#E9E1D4" transform="translate(1106.4375,1148.125)"/>
<path d="M0 0 C0.66 0 1.32 0 2 0 C3.53472142 9.97836915 4.63869953 19.94817987 5.5078125 30.00390625 C5.63930356 31.4997659 5.77097036 32.99561011 5.90280151 34.49143982 C6.17593213 37.60141223 6.44614421 40.71162111 6.71435547 43.82202148 C7.05526053 47.77134762 7.40480798 51.71985488 7.75671577 55.66821384 C8.03008156 58.74885679 8.29815521 61.82994411 8.564785 64.91117668 C8.69140239 66.36590791 8.81973374 67.82049119 8.94995499 69.27490425 C9.74681594 78.20759935 10.12647812 87.02681516 10 96 C4.39 96 -1.22 96 -7 96 C-5.91388057 75.47805926 -4.52101605 54.98965107 -2.9375 34.5 C-2.84964233 33.35921997 -2.76178467 32.21843994 -2.67126465 31.04309082 C-2.4167419 27.74733538 -2.16010246 24.45175382 -1.90234375 21.15625 C-1.7883448 19.68916595 -1.7883448 19.68916595 -1.67204285 18.19244385 C-1.19222759 12.1195759 -0.63120612 6.05900196 0 0 Z " fill="#EBDECD" transform="translate(1158,876)"/>
<path d="M0 0 C3.5625 0.4375 3.5625 0.4375 5.875 1.9375 C10.66485777 9.03358558 9.80459634 17.74075655 9.6875 25.9375 C9.67847656 27.14148438 9.66945313 28.34546875 9.66015625 29.5859375 C9.63673873 32.53654497 9.60087292 35.48704913 9.5625 38.4375 C3.2925 38.4375 -2.9775 38.4375 -9.4375 38.4375 C-9.51891697 34.29126536 -9.57820812 30.14665204 -9.625 26 C-9.65013672 24.83533203 -9.67527344 23.67066406 -9.70117188 22.47070312 C-9.82672357 7.61375213 -9.82672357 7.61375213 -5.04760742 1.72485352 C-3.4375 0.4375 -3.4375 0.4375 0 0 Z " fill="#EBDECD" transform="translate(1376.4375,898.5625)"/>
<path d="M0 0 C3.10164769 2.55024365 4.72566416 4.17699247 6 8 C6.08378628 10.2838517 6.10729915 12.570101 6.09765625 14.85546875 C6.0962413 15.51710526 6.09482635 16.17874176 6.09336853 16.86042786 C6.08777996 18.96949828 6.07522965 21.07846177 6.0625 23.1875 C6.05748352 24.61913909 6.05292087 26.05077985 6.04882812 27.48242188 C6.038666 30.98835539 6.01908861 34.49405827 6 38 C0.06 38 -5.88 38 -12 38 C-12.06914407 33.97940054 -12.12879137 29.96032991 -12.16479492 25.93945312 C-12.17981428 24.57382184 -12.20023608 23.20823824 -12.22631836 21.84277344 C-12.26300137 19.87196095 -12.27818551 17.90078592 -12.29296875 15.9296875 C-12.3086792 14.74616699 -12.32438965 13.56264648 -12.34057617 12.34326172 C-11.88816945 7.9022168 -10.22215235 4.74593193 -7.6875 1.125 C-4.97746424 -0.68169051 -3.17296619 -0.50767459 0 0 Z " fill="#E8E0D3" transform="translate(903,899)"/>
<path d="M0 0 C2.46978786 2.46978786 2.9745065 4.46754262 4.05859375 7.78515625 C4.44466797 8.95626953 4.83074219 10.12738281 5.22851562 11.33398438 C5.62748047 12.56439453 6.02644531 13.79480469 6.4375 15.0625 C6.83259766 16.26583984 7.22769531 17.46917969 7.63476562 18.70898438 C8.38093323 20.98225042 9.1246256 23.25633155 9.86499023 25.53149414 C11.22680686 29.69310499 12.61531414 33.84594242 14 38 C5.09 38 -3.82 38 -13 38 C-10.57780695 29.92602318 -8.03818985 21.93136501 -5.375 13.9375 C-4.76398437 12.08608398 -4.76398437 12.08608398 -4.140625 10.19726562 C-3.75132812 9.02744141 -3.36203125 7.85761719 -2.9609375 6.65234375 C-2.60821777 5.59007568 -2.25549805 4.52780762 -1.89208984 3.43334961 C-1 1 -1 1 0 0 Z " fill="#E6DED1" transform="translate(768,1130)"/>
<path d="M0 0 C3.7261236 3.19382022 3.7261236 3.19382022 4.625 6.25 C4.625 8.23 4.625 10.21 4.625 12.25 C-3.625 12.25 -11.875 12.25 -20.375 12.25 C-19.20833333 4.08333333 -19.20833333 4.08333333 -15.375 0.25 C-10.63054749 -3.30833938 -4.92901109 -2.55578353 0 0 Z " fill="#E1D9CD" transform="translate(1253.375,1147.75)"/>
<path d="M0 0 C5.61 0 11.22 0 17 0 C17 5.28 17 10.56 17 16 C11.39 16 5.78 16 0 16 C0 10.72 0 5.44 0 0 Z " fill="#525251" transform="translate(925,1110)"/>
</svg>
